<mxfile host="app.diagrams.net" modified="2024-05-27T15:45:34.982Z" agent="Mozilla/5.0 (Windows NT 10.0; Win64; x64) AppleWebKit/537.36 (KHTML, like Gecko) Chrome/125.0.0.0 Safari/537.36" etag="F2nc3YV7btq4ZVd05X2j" version="24.4.9" type="github">
  <diagram name="Page-1" id="ee1Z87Gk3CVDDKr3bbFb">
    <mxGraphModel dx="4887" dy="545" grid="0" gridSize="10" guides="1" tooltips="1" connect="1" arrows="1" fold="1" page="0" pageScale="1" pageWidth="827" pageHeight="1169" math="0" shadow="0">
      <root>
        <mxCell id="0" />
        <mxCell id="1" parent="0" />
        <mxCell id="4inZ2WwJJF7acPCkOvNZ-1" value="&lt;b&gt;See list of doctors&lt;/b&gt;" style="shape=parallelogram;perimeter=parallelogramPerimeter;whiteSpace=wrap;html=1;fixedSize=1;fillColor=#dae8fc;strokeColor=#000000;fontFamily=Helvetica;fontSize=11;fontColor=default;labelBackgroundColor=none;" parent="1" vertex="1">
          <mxGeometry x="-2485" y="549" width="207" height="29" as="geometry" />
        </mxCell>
        <mxCell id="ZVA24bUqgCefPZl9Vzj5-2" value="" style="ellipse;whiteSpace=wrap;html=1;aspect=fixed;fillColor=#FFD966;strokeWidth=2;" parent="1" vertex="1">
          <mxGeometry x="-2395.5" y="626" width="28" height="28" as="geometry" />
        </mxCell>
        <mxCell id="ZVA24bUqgCefPZl9Vzj5-3" value="" style="endArrow=block;html=1;rounded=0;endFill=1;strokeWidth=2;" parent="1" source="ZVA24bUqgCefPZl9Vzj5-2" target="4inZ2WwJJF7acPCkOvNZ-1" edge="1">
          <mxGeometry width="50" height="50" relative="1" as="geometry">
            <mxPoint x="-2358.0048150765288" y="734.9718581716346" as="sourcePoint" />
            <mxPoint x="-2381" y="590" as="targetPoint" />
          </mxGeometry>
        </mxCell>
        <mxCell id="ZVA24bUqgCefPZl9Vzj5-4" value="" style="endArrow=none;html=1;rounded=0;strokeWidth=2;" parent="1" source="ZVA24bUqgCefPZl9Vzj5-5" target="ZVA24bUqgCefPZl9Vzj5-2" edge="1">
          <mxGeometry width="50" height="50" relative="1" as="geometry">
            <mxPoint x="-2453" y="724" as="sourcePoint" />
            <mxPoint x="-2334" y="733" as="targetPoint" />
          </mxGeometry>
        </mxCell>
        <mxCell id="ZVA24bUqgCefPZl9Vzj5-5" value="&lt;b&gt;List of doctors requested&lt;/b&gt;" style="shape=parallelogram;perimeter=parallelogramPerimeter;whiteSpace=wrap;html=1;fixedSize=1;fillColor=#FFD966;strokeColor=#000000;strokeWidth=3;fontFamily=Helvetica;fontSize=11;fontColor=default;labelBackgroundColor=none;" parent="1" vertex="1">
          <mxGeometry x="-2690" y="700" width="196" height="36" as="geometry" />
        </mxCell>
        <mxCell id="ZVA24bUqgCefPZl9Vzj5-6" value="&lt;b&gt;Doctors displayed&lt;/b&gt;" style="shape=parallelogram;perimeter=parallelogramPerimeter;whiteSpace=wrap;html=1;fixedSize=1;fillColor=#dae8fc;strokeColor=#000000;fontFamily=Helvetica;fontSize=11;fontColor=default;labelBackgroundColor=none;strokeWidth=3;" parent="1" vertex="1">
          <mxGeometry x="-2298" y="699" width="207" height="38" as="geometry" />
        </mxCell>
        <mxCell id="ZVA24bUqgCefPZl9Vzj5-7" value="" style="endArrow=none;html=1;rounded=0;strokeWidth=2;" parent="1" source="ZVA24bUqgCefPZl9Vzj5-6" target="ZVA24bUqgCefPZl9Vzj5-2" edge="1">
          <mxGeometry width="50" height="50" relative="1" as="geometry">
            <mxPoint x="-2520" y="756" as="sourcePoint" />
            <mxPoint x="-2383" y="670" as="targetPoint" />
          </mxGeometry>
        </mxCell>
        <mxCell id="ZVA24bUqgCefPZl9Vzj5-10" value="" style="endArrow=none;html=1;rounded=0;strokeWidth=2;" parent="1" source="ZVA24bUqgCefPZl9Vzj5-41" target="ZVA24bUqgCefPZl9Vzj5-2" edge="1">
          <mxGeometry width="50" height="50" relative="1" as="geometry">
            <mxPoint x="-2059.427842858372" y="702.5701171450696" as="sourcePoint" />
            <mxPoint x="-2367" y="676" as="targetPoint" />
          </mxGeometry>
        </mxCell>
        <mxCell id="ZVA24bUqgCefPZl9Vzj5-11" value="" style="ellipse;whiteSpace=wrap;html=1;aspect=fixed;fillColor=#FAADFF;strokeWidth=2;fontFamily=Helvetica;fontSize=11;fontColor=default;labelBackgroundColor=default;" parent="1" vertex="1">
          <mxGeometry x="-2607" y="767" width="28" height="28" as="geometry" />
        </mxCell>
        <mxCell id="ZVA24bUqgCefPZl9Vzj5-12" value="" style="endArrow=block;html=1;rounded=0;endFill=1;strokeWidth=2;strokeColor=default;align=center;verticalAlign=middle;fontFamily=Helvetica;fontSize=11;fontColor=default;labelBackgroundColor=default;" parent="1" source="ZVA24bUqgCefPZl9Vzj5-11" target="ZVA24bUqgCefPZl9Vzj5-5" edge="1">
          <mxGeometry width="50" height="50" relative="1" as="geometry">
            <mxPoint x="-2671.0048150765288" y="785.9718581716346" as="sourcePoint" />
            <mxPoint x="-2675" y="741" as="targetPoint" />
          </mxGeometry>
        </mxCell>
        <mxCell id="ZVA24bUqgCefPZl9Vzj5-13" value="" style="endArrow=none;html=1;rounded=0;strokeWidth=2;strokeColor=default;align=center;verticalAlign=middle;fontFamily=Helvetica;fontSize=11;fontColor=default;labelBackgroundColor=default;" parent="1" source="ZVA24bUqgCefPZl9Vzj5-15" target="ZVA24bUqgCefPZl9Vzj5-11" edge="1">
          <mxGeometry width="50" height="50" relative="1" as="geometry">
            <mxPoint x="-2672" y="848" as="sourcePoint" />
            <mxPoint x="-2647" y="784" as="targetPoint" />
          </mxGeometry>
        </mxCell>
        <mxCell id="ZVA24bUqgCefPZl9Vzj5-14" value="" style="group" parent="1" vertex="1" connectable="0">
          <mxGeometry x="-2653" y="905" width="120" height="40" as="geometry" />
        </mxCell>
        <mxCell id="ZVA24bUqgCefPZl9Vzj5-15" value="&lt;div&gt;&lt;b&gt;Patient&lt;/b&gt;&lt;/div&gt;" style="shape=hexagon;perimeter=hexagonPerimeter2;whiteSpace=wrap;html=1;fixedSize=1;fillColor=#FFF2CC;fontFamily=Helvetica;fontSize=11;fontColor=default;labelBackgroundColor=none;" parent="ZVA24bUqgCefPZl9Vzj5-14" vertex="1">
          <mxGeometry width="120" height="40" as="geometry" />
        </mxCell>
        <mxCell id="ZVA24bUqgCefPZl9Vzj5-16" value="" style="shape=umlActor;verticalLabelPosition=bottom;verticalAlign=top;html=1;outlineConnect=0;fillColor=none;strokeWidth=2;fontFamily=Helvetica;fontSize=11;fontColor=default;labelBackgroundColor=default;" parent="ZVA24bUqgCefPZl9Vzj5-14" vertex="1">
          <mxGeometry x="14.983050847457434" y="7.75" width="10.372881355932204" height="24.5" as="geometry" />
        </mxCell>
        <mxCell id="ZVA24bUqgCefPZl9Vzj5-17" value="" style="ellipse;whiteSpace=wrap;html=1;aspect=fixed;fillColor=#FF0000;strokeWidth=2;" parent="1" vertex="1">
          <mxGeometry x="-2411.5" y="767" width="28" height="28" as="geometry" />
        </mxCell>
        <mxCell id="ZVA24bUqgCefPZl9Vzj5-18" value="" style="endArrow=block;html=1;rounded=0;endFill=1;strokeWidth=2;" parent="1" source="ZVA24bUqgCefPZl9Vzj5-17" target="ZVA24bUqgCefPZl9Vzj5-21" edge="1">
          <mxGeometry width="50" height="50" relative="1" as="geometry">
            <mxPoint x="-2194.0048150765288" y="886.9718581716346" as="sourcePoint" />
            <mxPoint x="-2429.3970588235297" y="744" as="targetPoint" />
          </mxGeometry>
        </mxCell>
        <mxCell id="ZVA24bUqgCefPZl9Vzj5-19" value="" style="endArrow=none;html=1;rounded=0;strokeWidth=2;" parent="1" source="ZVA24bUqgCefPZl9Vzj5-50" target="ZVA24bUqgCefPZl9Vzj5-17" edge="1">
          <mxGeometry width="50" height="50" relative="1" as="geometry">
            <mxPoint x="-2397.7012960327024" y="844" as="sourcePoint" />
            <mxPoint x="-2101" y="888.5" as="targetPoint" />
          </mxGeometry>
        </mxCell>
        <mxCell id="ZVA24bUqgCefPZl9Vzj5-21" value="&lt;b&gt;Doctors information retrieved&lt;/b&gt;" style="shape=parallelogram;perimeter=parallelogramPerimeter;whiteSpace=wrap;html=1;fixedSize=1;fillColor=#dae8fc;strokeColor=#000000;fontFamily=Helvetica;fontSize=11;fontColor=default;labelBackgroundColor=none;strokeWidth=3;" parent="1" vertex="1">
          <mxGeometry x="-2501" y="699" width="207" height="38" as="geometry" />
        </mxCell>
        <mxCell id="ZVA24bUqgCefPZl9Vzj5-22" value="" style="endArrow=none;html=1;rounded=0;strokeWidth=2;" parent="1" source="ZVA24bUqgCefPZl9Vzj5-21" target="ZVA24bUqgCefPZl9Vzj5-2" edge="1">
          <mxGeometry width="50" height="50" relative="1" as="geometry">
            <mxPoint x="-2239" y="711" as="sourcePoint" />
            <mxPoint x="-2359" y="656" as="targetPoint" />
          </mxGeometry>
        </mxCell>
        <mxCell id="ZVA24bUqgCefPZl9Vzj5-23" value="" style="ellipse;whiteSpace=wrap;html=1;aspect=fixed;fillColor=#FF0000;strokeWidth=2;" parent="1" vertex="1">
          <mxGeometry x="-2190" y="771" width="28" height="28" as="geometry" />
        </mxCell>
        <mxCell id="ZVA24bUqgCefPZl9Vzj5-24" value="" style="endArrow=block;html=1;rounded=0;endFill=1;strokeWidth=2;" parent="1" source="ZVA24bUqgCefPZl9Vzj5-23" target="ZVA24bUqgCefPZl9Vzj5-6" edge="1">
          <mxGeometry width="50" height="50" relative="1" as="geometry">
            <mxPoint x="-1977.5048150765288" y="893.9718581716346" as="sourcePoint" />
            <mxPoint x="-2180.5" y="744" as="targetPoint" />
          </mxGeometry>
        </mxCell>
        <mxCell id="ZVA24bUqgCefPZl9Vzj5-25" value="" style="endArrow=none;html=1;rounded=0;strokeWidth=2;" parent="1" source="ZVA24bUqgCefPZl9Vzj5-26" target="ZVA24bUqgCefPZl9Vzj5-23" edge="1">
          <mxGeometry width="50" height="50" relative="1" as="geometry">
            <mxPoint x="-1973.1493021052702" y="1044.5" as="sourcePoint" />
            <mxPoint x="-1884.5" y="895.5" as="targetPoint" />
          </mxGeometry>
        </mxCell>
        <mxCell id="ZVA24bUqgCefPZl9Vzj5-26" value="&lt;div&gt;&lt;b&gt;Interface Controller&lt;/b&gt;&lt;/div&gt;" style="shape=hexagon;perimeter=hexagonPerimeter2;whiteSpace=wrap;html=1;fixedSize=1;fillColor=#FFF2CC;fontFamily=Helvetica;fontSize=11;fontColor=default;labelBackgroundColor=none;" parent="1" vertex="1">
          <mxGeometry x="-2204" y="829" width="146" height="38" as="geometry" />
        </mxCell>
        <mxCell id="ZVA24bUqgCefPZl9Vzj5-34" value="&lt;b&gt;Filters provided&lt;/b&gt;" style="shape=parallelogram;perimeter=parallelogramPerimeter;whiteSpace=wrap;html=1;fixedSize=1;fillColor=#FFD966;strokeColor=#000000;strokeWidth=3;fontFamily=Helvetica;fontSize=11;fontColor=default;labelBackgroundColor=none;" parent="1" vertex="1">
          <mxGeometry x="-1896" y="918" width="196" height="36" as="geometry" />
        </mxCell>
        <mxCell id="ZVA24bUqgCefPZl9Vzj5-35" value="" style="ellipse;whiteSpace=wrap;html=1;aspect=fixed;fillColor=#FAADFF;strokeWidth=2;fontFamily=Helvetica;fontSize=11;fontColor=default;labelBackgroundColor=default;" parent="1" vertex="1">
          <mxGeometry x="-2251" y="911" width="28" height="28" as="geometry" />
        </mxCell>
        <mxCell id="ZVA24bUqgCefPZl9Vzj5-36" value="" style="endArrow=block;html=1;rounded=0;endFill=1;strokeWidth=2;strokeColor=default;align=center;verticalAlign=middle;fontFamily=Helvetica;fontSize=11;fontColor=default;labelBackgroundColor=default;" parent="1" source="ZVA24bUqgCefPZl9Vzj5-35" target="ZVA24bUqgCefPZl9Vzj5-34" edge="1">
          <mxGeometry width="50" height="50" relative="1" as="geometry">
            <mxPoint x="-1807.0048150765288" y="897.9718581716346" as="sourcePoint" />
            <mxPoint x="-1811" y="853" as="targetPoint" />
          </mxGeometry>
        </mxCell>
        <mxCell id="ZVA24bUqgCefPZl9Vzj5-37" value="" style="endArrow=none;html=1;rounded=0;strokeWidth=2;strokeColor=default;align=center;verticalAlign=middle;fontFamily=Helvetica;fontSize=11;fontColor=default;labelBackgroundColor=default;" parent="1" source="ZVA24bUqgCefPZl9Vzj5-15" target="ZVA24bUqgCefPZl9Vzj5-35" edge="1">
          <mxGeometry width="50" height="50" relative="1" as="geometry">
            <mxPoint x="-1999" y="945" as="sourcePoint" />
            <mxPoint x="-2054" y="887" as="targetPoint" />
          </mxGeometry>
        </mxCell>
        <mxCell id="ZVA24bUqgCefPZl9Vzj5-41" value="&lt;b&gt;Display doctors based on filters&lt;/b&gt;" style="shape=parallelogram;perimeter=parallelogramPerimeter;whiteSpace=wrap;html=1;fixedSize=1;fillColor=#dae8fc;strokeColor=#000000;fontFamily=Helvetica;fontSize=11;fontColor=default;labelBackgroundColor=none;strokeWidth=1;" parent="1" vertex="1">
          <mxGeometry x="-1678" y="737" width="207" height="38" as="geometry" />
        </mxCell>
        <mxCell id="ZVA24bUqgCefPZl9Vzj5-42" value="" style="ellipse;whiteSpace=wrap;html=1;aspect=fixed;fillColor=#FFD966;strokeWidth=2;" parent="1" vertex="1">
          <mxGeometry x="-1589.5" y="805" width="28" height="28" as="geometry" />
        </mxCell>
        <mxCell id="ZVA24bUqgCefPZl9Vzj5-43" value="" style="endArrow=block;html=1;rounded=0;endFill=1;strokeWidth=2;" parent="1" source="ZVA24bUqgCefPZl9Vzj5-42" target="ZVA24bUqgCefPZl9Vzj5-41" edge="1">
          <mxGeometry width="50" height="50" relative="1" as="geometry">
            <mxPoint x="-1760.004815076529" y="791.9718581716346" as="sourcePoint" />
            <mxPoint x="-1764" y="747" as="targetPoint" />
          </mxGeometry>
        </mxCell>
        <mxCell id="ZVA24bUqgCefPZl9Vzj5-44" value="" style="endArrow=none;html=1;rounded=0;strokeWidth=2;" parent="1" source="ZVA24bUqgCefPZl9Vzj5-34" target="ZVA24bUqgCefPZl9Vzj5-42" edge="1">
          <mxGeometry width="50" height="50" relative="1" as="geometry">
            <mxPoint x="-1761" y="849" as="sourcePoint" />
            <mxPoint x="-1736" y="790" as="targetPoint" />
          </mxGeometry>
        </mxCell>
        <mxCell id="ZVA24bUqgCefPZl9Vzj5-45" value="&lt;b&gt;Filters applied&lt;/b&gt;" style="shape=parallelogram;perimeter=parallelogramPerimeter;whiteSpace=wrap;html=1;fixedSize=1;fillColor=#dae8fc;strokeColor=#000000;fontFamily=Helvetica;fontSize=11;fontColor=default;labelBackgroundColor=none;strokeWidth=3;" parent="1" vertex="1">
          <mxGeometry x="-1684" y="918" width="207" height="38" as="geometry" />
        </mxCell>
        <mxCell id="ZVA24bUqgCefPZl9Vzj5-46" value="" style="endArrow=none;html=1;rounded=0;strokeWidth=2;" parent="1" source="ZVA24bUqgCefPZl9Vzj5-45" target="ZVA24bUqgCefPZl9Vzj5-42" edge="1">
          <mxGeometry width="50" height="50" relative="1" as="geometry">
            <mxPoint x="-1718" y="891" as="sourcePoint" />
            <mxPoint x="-1707" y="838" as="targetPoint" />
          </mxGeometry>
        </mxCell>
        <mxCell id="ZVA24bUqgCefPZl9Vzj5-47" value="" style="ellipse;whiteSpace=wrap;html=1;aspect=fixed;fillColor=#FF0000;strokeWidth=2;" parent="1" vertex="1">
          <mxGeometry x="-1658" y="1018" width="28" height="28" as="geometry" />
        </mxCell>
        <mxCell id="ZVA24bUqgCefPZl9Vzj5-48" value="" style="endArrow=block;html=1;rounded=0;endFill=1;strokeWidth=2;" parent="1" source="ZVA24bUqgCefPZl9Vzj5-47" target="ZVA24bUqgCefPZl9Vzj5-45" edge="1">
          <mxGeometry width="50" height="50" relative="1" as="geometry">
            <mxPoint x="-1311.0048150765288" y="1025.9718581716347" as="sourcePoint" />
            <mxPoint x="-1527.5" y="870" as="targetPoint" />
          </mxGeometry>
        </mxCell>
        <mxCell id="ZVA24bUqgCefPZl9Vzj5-49" value="" style="endArrow=none;html=1;rounded=0;strokeWidth=2;" parent="1" source="ZVA24bUqgCefPZl9Vzj5-50" target="ZVA24bUqgCefPZl9Vzj5-47" edge="1">
          <mxGeometry width="50" height="50" relative="1" as="geometry">
            <mxPoint x="-1306.6493021052702" y="1176.5" as="sourcePoint" />
            <mxPoint x="-1218" y="1027.5" as="targetPoint" />
          </mxGeometry>
        </mxCell>
        <mxCell id="ZVA24bUqgCefPZl9Vzj5-50" value="&lt;div&gt;&lt;b&gt;Doctor controller&lt;/b&gt;&lt;/div&gt;" style="shape=hexagon;perimeter=hexagonPerimeter2;whiteSpace=wrap;html=1;fixedSize=1;fillColor=#FFF2CC;fontFamily=Helvetica;fontSize=11;fontColor=default;labelBackgroundColor=none;" parent="1" vertex="1">
          <mxGeometry x="-1989" y="1013" width="146" height="38" as="geometry" />
        </mxCell>
        <mxCell id="ZVA24bUqgCefPZl9Vzj5-51" value="" style="ellipse;whiteSpace=wrap;html=1;aspect=fixed;fillColor=#FF0000;strokeWidth=2;" parent="1" vertex="1">
          <mxGeometry x="-1402" y="855" width="28" height="28" as="geometry" />
        </mxCell>
        <mxCell id="ZVA24bUqgCefPZl9Vzj5-52" value="" style="endArrow=block;html=1;rounded=0;endFill=1;strokeWidth=2;" parent="1" source="ZVA24bUqgCefPZl9Vzj5-51" target="ZVA24bUqgCefPZl9Vzj5-55" edge="1">
          <mxGeometry width="50" height="50" relative="1" as="geometry">
            <mxPoint x="-1058.0048150765288" y="1052.9718581716347" as="sourcePoint" />
            <mxPoint x="-1274.5" y="897" as="targetPoint" />
          </mxGeometry>
        </mxCell>
        <mxCell id="ZVA24bUqgCefPZl9Vzj5-53" value="" style="endArrow=none;html=1;rounded=0;strokeWidth=2;" parent="1" source="ZVA24bUqgCefPZl9Vzj5-26" target="ZVA24bUqgCefPZl9Vzj5-51" edge="1">
          <mxGeometry width="50" height="50" relative="1" as="geometry">
            <mxPoint x="-1858.463243154346" y="1002.3849190033714" as="sourcePoint" />
            <mxPoint x="-965" y="1054.5" as="targetPoint" />
          </mxGeometry>
        </mxCell>
        <mxCell id="ZVA24bUqgCefPZl9Vzj5-55" value="&lt;b&gt;Filtered doctors displayed&lt;/b&gt;" style="shape=parallelogram;perimeter=parallelogramPerimeter;whiteSpace=wrap;html=1;fixedSize=1;fillColor=#dae8fc;strokeColor=#000000;fontFamily=Helvetica;fontSize=11;fontColor=default;labelBackgroundColor=none;strokeWidth=3;" parent="1" vertex="1">
          <mxGeometry x="-1464" y="917" width="207" height="38" as="geometry" />
        </mxCell>
        <mxCell id="ZVA24bUqgCefPZl9Vzj5-56" value="" style="endArrow=none;html=1;rounded=0;strokeWidth=2;" parent="1" source="ZVA24bUqgCefPZl9Vzj5-55" target="ZVA24bUqgCefPZl9Vzj5-42" edge="1">
          <mxGeometry width="50" height="50" relative="1" as="geometry">
            <mxPoint x="-1492" y="866" as="sourcePoint" />
            <mxPoint x="-1629" y="806" as="targetPoint" />
          </mxGeometry>
        </mxCell>
        <mxCell id="ZVA24bUqgCefPZl9Vzj5-58" value="Data taking too long to render" style="shape=parallelogram;perimeter=parallelogramPerimeter;whiteSpace=wrap;html=1;fixedSize=1;fillColor=#FFA070;fontStyle=1;fontFamily=Helvetica;fontSize=11;fontColor=default;labelBackgroundColor=none;flipH=1;flipV=0;" parent="1" vertex="1">
          <mxGeometry x="-2537.5" y="949" width="198" height="36" as="geometry" />
        </mxCell>
        <mxCell id="ZVA24bUqgCefPZl9Vzj5-59" value="" style="endArrow=block;html=1;rounded=0;endFill=1;strokeWidth=2;" parent="1" source="ZVA24bUqgCefPZl9Vzj5-61" target="ZVA24bUqgCefPZl9Vzj5-6" edge="1">
          <mxGeometry width="50" height="50" relative="1" as="geometry">
            <mxPoint x="-1490.5" y="789" as="sourcePoint" />
            <mxPoint x="-1578.5" y="787" as="targetPoint" />
          </mxGeometry>
        </mxCell>
        <mxCell id="ZVA24bUqgCefPZl9Vzj5-60" value="" style="endArrow=none;html=1;rounded=0;strokeWidth=2;" parent="1" source="ZVA24bUqgCefPZl9Vzj5-58" target="ZVA24bUqgCefPZl9Vzj5-61" edge="1">
          <mxGeometry width="50" height="50" relative="1" as="geometry">
            <mxPoint x="-1577.5" y="808" as="sourcePoint" />
            <mxPoint x="-1499.255851087944" y="761.9978709578809" as="targetPoint" />
          </mxGeometry>
        </mxCell>
        <mxCell id="ZVA24bUqgCefPZl9Vzj5-61" value="" style="triangle;whiteSpace=wrap;html=1;rotation=-90;fillColor=#FFA070;" parent="1" vertex="1">
          <mxGeometry x="-2347" y="842" width="27" height="25" as="geometry" />
        </mxCell>
        <mxCell id="ZVA24bUqgCefPZl9Vzj5-62" value="" style="ellipse;whiteSpace=wrap;html=1;aspect=fixed;fillColor=#FFA070;strokeWidth=2;" parent="1" vertex="1">
          <mxGeometry x="-2452.5" y="1006" width="28" height="28" as="geometry" />
        </mxCell>
        <mxCell id="ZVA24bUqgCefPZl9Vzj5-63" value="" style="endArrow=none;html=1;rounded=0;strokeWidth=2;" parent="1" source="ZVA24bUqgCefPZl9Vzj5-64" target="ZVA24bUqgCefPZl9Vzj5-62" edge="1">
          <mxGeometry width="50" height="50" relative="1" as="geometry">
            <mxPoint x="-2518" y="1132" as="sourcePoint" />
            <mxPoint x="-2493" y="1068" as="targetPoint" />
          </mxGeometry>
        </mxCell>
        <mxCell id="ZVA24bUqgCefPZl9Vzj5-64" value="DB query processing time" style="shape=parallelogram;perimeter=parallelogramPerimeter;whiteSpace=wrap;html=1;fixedSize=1;fillColor=#FFA070;fontStyle=1;fontFamily=Helvetica;fontSize=11;fontColor=default;labelBackgroundColor=none;flipH=1;flipV=0;" parent="1" vertex="1">
          <mxGeometry x="-2698" y="1038" width="176" height="36" as="geometry" />
        </mxCell>
        <mxCell id="ZVA24bUqgCefPZl9Vzj5-65" value="Blob Storage image retrieve time" style="shape=parallelogram;perimeter=parallelogramPerimeter;whiteSpace=wrap;html=1;fixedSize=1;fillColor=#FFA070;fontStyle=1;fontFamily=Helvetica;fontSize=11;fontColor=default;labelBackgroundColor=none;flipH=1;flipV=0;" parent="1" vertex="1">
          <mxGeometry x="-2396.5" y="1038" width="210" height="36" as="geometry" />
        </mxCell>
        <mxCell id="ZVA24bUqgCefPZl9Vzj5-66" value="" style="endArrow=none;html=1;rounded=0;strokeWidth=2;" parent="1" source="ZVA24bUqgCefPZl9Vzj5-65" target="ZVA24bUqgCefPZl9Vzj5-62" edge="1">
          <mxGeometry width="50" height="50" relative="1" as="geometry">
            <mxPoint x="-2599" y="1104" as="sourcePoint" />
            <mxPoint x="-2510" y="1062" as="targetPoint" />
          </mxGeometry>
        </mxCell>
        <mxCell id="ZVA24bUqgCefPZl9Vzj5-67" value="" style="endArrow=block;html=1;rounded=0;endFill=1;strokeWidth=2;" parent="1" source="ZVA24bUqgCefPZl9Vzj5-62" target="ZVA24bUqgCefPZl9Vzj5-58" edge="1">
          <mxGeometry width="50" height="50" relative="1" as="geometry">
            <mxPoint x="-2460.5" y="1044.5" as="sourcePoint" />
            <mxPoint x="-2595.5" y="1028.5" as="targetPoint" />
          </mxGeometry>
        </mxCell>
        <mxCell id="ZVA24bUqgCefPZl9Vzj5-68" value="&lt;b&gt;Display doctors&lt;/b&gt;" style="ellipse;whiteSpace=wrap;html=1;fillColor=#E4B9E7;strokeColor=#000000;fontFamily=Helvetica;fontSize=11;fontColor=default;labelBackgroundColor=none;" parent="1" vertex="1">
          <mxGeometry x="-1855" y="805" width="120" height="41" as="geometry" />
        </mxCell>
        <mxCell id="ZVA24bUqgCefPZl9Vzj5-69" value="" style="endArrow=block;html=1;rounded=0;endFill=1;strokeWidth=2;" parent="1" source="ZVA24bUqgCefPZl9Vzj5-26" target="ZVA24bUqgCefPZl9Vzj5-68" edge="1">
          <mxGeometry width="50" height="50" relative="1" as="geometry">
            <mxPoint x="-1627" y="1148" as="sourcePoint" />
            <mxPoint x="-1355" y="1109" as="targetPoint" />
          </mxGeometry>
        </mxCell>
        <mxCell id="ZVA24bUqgCefPZl9Vzj5-70" value="&lt;b&gt;Performs&lt;/b&gt;" style="edgeLabel;html=1;align=center;verticalAlign=middle;resizable=0;points=[];" parent="ZVA24bUqgCefPZl9Vzj5-69" vertex="1" connectable="0">
          <mxGeometry x="-0.0439" y="1" relative="1" as="geometry">
            <mxPoint as="offset" />
          </mxGeometry>
        </mxCell>
        <mxCell id="ZVA24bUqgCefPZl9Vzj5-71" value="&lt;b&gt;Doctor&lt;/b&gt;" style="rounded=0;whiteSpace=wrap;html=1;fillColor=#FFF2CC;fontFamily=Helvetica;fontSize=11;fontColor=default;labelBackgroundColor=none;" parent="1" vertex="1">
          <mxGeometry x="-1973" y="731" width="90" height="36" as="geometry" />
        </mxCell>
        <mxCell id="ZVA24bUqgCefPZl9Vzj5-72" value="" style="endArrow=block;html=1;rounded=0;endFill=1;strokeWidth=2;" parent="1" source="ZVA24bUqgCefPZl9Vzj5-68" target="ZVA24bUqgCefPZl9Vzj5-71" edge="1">
          <mxGeometry width="50" height="50" relative="1" as="geometry">
            <mxPoint x="-1222" y="1121" as="sourcePoint" />
            <mxPoint x="-1154" y="1042" as="targetPoint" />
          </mxGeometry>
        </mxCell>
        <mxCell id="ZVA24bUqgCefPZl9Vzj5-73" value="&lt;b&gt;Output&lt;/b&gt;" style="edgeLabel;html=1;align=center;verticalAlign=middle;resizable=0;points=[];" parent="ZVA24bUqgCefPZl9Vzj5-72" vertex="1" connectable="0">
          <mxGeometry x="-0.0439" y="1" relative="1" as="geometry">
            <mxPoint as="offset" />
          </mxGeometry>
        </mxCell>
        <mxCell id="ZVA24bUqgCefPZl9Vzj5-74" value="" style="ellipse;whiteSpace=wrap;html=1;aspect=fixed;fillColor=#3399FF;strokeWidth=2;" parent="1" vertex="1">
          <mxGeometry x="-2083" y="775" width="28" height="28" as="geometry" />
        </mxCell>
        <mxCell id="ZVA24bUqgCefPZl9Vzj5-75" value="" style="endArrow=block;html=1;rounded=0;endFill=1;strokeWidth=2;" parent="1" source="ZVA24bUqgCefPZl9Vzj5-74" target="ZVA24bUqgCefPZl9Vzj5-6" edge="1">
          <mxGeometry width="50" height="50" relative="1" as="geometry">
            <mxPoint x="-1730.004815076529" y="989.9718581716346" as="sourcePoint" />
            <mxPoint x="-1468" y="923" as="targetPoint" />
          </mxGeometry>
        </mxCell>
        <mxCell id="ZVA24bUqgCefPZl9Vzj5-76" value="" style="endArrow=none;html=1;rounded=0;strokeWidth=2;" parent="1" source="ZVA24bUqgCefPZl9Vzj5-68" target="ZVA24bUqgCefPZl9Vzj5-74" edge="1">
          <mxGeometry width="50" height="50" relative="1" as="geometry">
            <mxPoint x="-1731" y="1052" as="sourcePoint" />
            <mxPoint x="-1706" y="988" as="targetPoint" />
          </mxGeometry>
        </mxCell>
        <mxCell id="ZVA24bUqgCefPZl9Vzj5-82" value="" style="endArrow=block;html=1;rounded=0;endFill=1;strokeWidth=2;" parent="1" source="ZVA24bUqgCefPZl9Vzj5-84" target="ZVA24bUqgCefPZl9Vzj5-64" edge="1">
          <mxGeometry width="50" height="50" relative="1" as="geometry">
            <mxPoint x="-2494.5" y="1110" as="sourcePoint" />
            <mxPoint x="-2582.5" y="1108" as="targetPoint" />
          </mxGeometry>
        </mxCell>
        <mxCell id="ZVA24bUqgCefPZl9Vzj5-83" value="" style="endArrow=none;html=1;rounded=0;strokeWidth=2;" parent="1" source="ZVA24bUqgCefPZl9Vzj5-85" target="ZVA24bUqgCefPZl9Vzj5-84" edge="1">
          <mxGeometry width="50" height="50" relative="1" as="geometry">
            <mxPoint x="-2582.5" y="1191" as="sourcePoint" />
            <mxPoint x="-2504.255851087944" y="1144.9978709578809" as="targetPoint" />
          </mxGeometry>
        </mxCell>
        <mxCell id="ZVA24bUqgCefPZl9Vzj5-84" value="" style="triangle;whiteSpace=wrap;html=1;rotation=-90;fillColor=#00994D;" parent="1" vertex="1">
          <mxGeometry x="-2574" y="1093" width="27" height="25" as="geometry" />
        </mxCell>
        <mxCell id="ZVA24bUqgCefPZl9Vzj5-85" value="&lt;b&gt;Apply pagination&lt;/b&gt;" style="shape=parallelogram;perimeter=parallelogramPerimeter;whiteSpace=wrap;html=1;fixedSize=1;fillColor=#dae8fc;strokeColor=#000000;fontFamily=Helvetica;fontSize=11;fontColor=default;labelBackgroundColor=none;strokeWidth=3;" parent="1" vertex="1">
          <mxGeometry x="-2578.5" y="1143" width="149" height="38" as="geometry" />
        </mxCell>
        <mxCell id="ZVA24bUqgCefPZl9Vzj5-86" value="&lt;b&gt;Cache frequent queries&lt;/b&gt;" style="shape=parallelogram;perimeter=parallelogramPerimeter;whiteSpace=wrap;html=1;fixedSize=1;fillColor=#dae8fc;strokeColor=#000000;fontFamily=Helvetica;fontSize=11;fontColor=default;labelBackgroundColor=none;strokeWidth=3;" parent="1" vertex="1">
          <mxGeometry x="-2814" y="1143" width="169" height="38" as="geometry" />
        </mxCell>
        <mxCell id="ZVA24bUqgCefPZl9Vzj5-87" value="" style="endArrow=block;html=1;rounded=0;endFill=1;strokeWidth=2;" parent="1" source="ZVA24bUqgCefPZl9Vzj5-88" target="ZVA24bUqgCefPZl9Vzj5-64" edge="1">
          <mxGeometry width="50" height="50" relative="1" as="geometry">
            <mxPoint x="-2614.5" y="1128" as="sourcePoint" />
            <mxPoint x="-2685" y="1092" as="targetPoint" />
          </mxGeometry>
        </mxCell>
        <mxCell id="ZVA24bUqgCefPZl9Vzj5-88" value="" style="triangle;whiteSpace=wrap;html=1;rotation=-90;fillColor=#00994D;" parent="1" vertex="1">
          <mxGeometry x="-2687" y="1093" width="27" height="25" as="geometry" />
        </mxCell>
        <mxCell id="ZVA24bUqgCefPZl9Vzj5-89" value="" style="endArrow=none;html=1;rounded=0;strokeWidth=2;" parent="1" source="ZVA24bUqgCefPZl9Vzj5-86" target="ZVA24bUqgCefPZl9Vzj5-88" edge="1">
          <mxGeometry width="50" height="50" relative="1" as="geometry">
            <mxPoint x="-2666" y="1193" as="sourcePoint" />
            <mxPoint x="-2681" y="1154" as="targetPoint" />
          </mxGeometry>
        </mxCell>
        <mxCell id="ZVA24bUqgCefPZl9Vzj5-93" value="" style="endArrow=block;html=1;rounded=0;endFill=1;strokeWidth=2;" parent="1" source="ZVA24bUqgCefPZl9Vzj5-95" target="ZVA24bUqgCefPZl9Vzj5-65" edge="1">
          <mxGeometry width="50" height="50" relative="1" as="geometry">
            <mxPoint x="-2330" y="1131" as="sourcePoint" />
            <mxPoint x="-2397.5" y="1095" as="targetPoint" />
          </mxGeometry>
        </mxCell>
        <mxCell id="ZVA24bUqgCefPZl9Vzj5-94" value="" style="endArrow=none;html=1;rounded=0;strokeWidth=2;" parent="1" source="ZVA24bUqgCefPZl9Vzj5-97" target="ZVA24bUqgCefPZl9Vzj5-95" edge="1">
          <mxGeometry width="50" height="50" relative="1" as="geometry">
            <mxPoint x="-2397.5" y="1192" as="sourcePoint" />
            <mxPoint x="-2339.755851087944" y="1165.9978709578809" as="targetPoint" />
          </mxGeometry>
        </mxCell>
        <mxCell id="ZVA24bUqgCefPZl9Vzj5-95" value="" style="triangle;whiteSpace=wrap;html=1;rotation=-90;fillColor=#00994D;" parent="1" vertex="1">
          <mxGeometry x="-2308" y="1096" width="27" height="25" as="geometry" />
        </mxCell>
        <mxCell id="ZVA24bUqgCefPZl9Vzj5-97" value="&lt;b&gt;Asynchronous load of images&lt;/b&gt;" style="shape=parallelogram;perimeter=parallelogramPerimeter;whiteSpace=wrap;html=1;fixedSize=1;fillColor=#dae8fc;strokeColor=#000000;fontFamily=Helvetica;fontSize=11;fontColor=default;labelBackgroundColor=none;strokeWidth=3;" parent="1" vertex="1">
          <mxGeometry x="-2398.5" y="1143" width="200" height="38" as="geometry" />
        </mxCell>
        <mxCell id="ZVA24bUqgCefPZl9Vzj5-98" value="&lt;b&gt;Display default sample image until data arrives&lt;/b&gt;" style="shape=parallelogram;perimeter=parallelogramPerimeter;whiteSpace=wrap;html=1;fixedSize=1;fillColor=#dae8fc;strokeColor=#000000;fontFamily=Helvetica;fontSize=11;fontColor=default;labelBackgroundColor=none;strokeWidth=3;" parent="1" vertex="1">
          <mxGeometry x="-2190" y="1143" width="297" height="38" as="geometry" />
        </mxCell>
        <mxCell id="ZVA24bUqgCefPZl9Vzj5-104" value="" style="endArrow=block;html=1;rounded=0;endFill=1;strokeWidth=2;" parent="1" source="ZVA24bUqgCefPZl9Vzj5-106" target="ZVA24bUqgCefPZl9Vzj5-65" edge="1">
          <mxGeometry width="50" height="50" relative="1" as="geometry">
            <mxPoint x="-2224.5" y="1126" as="sourcePoint" />
            <mxPoint x="-2180.5" y="1069" as="targetPoint" />
          </mxGeometry>
        </mxCell>
        <mxCell id="ZVA24bUqgCefPZl9Vzj5-105" value="" style="endArrow=none;html=1;rounded=0;strokeWidth=2;" parent="1" source="ZVA24bUqgCefPZl9Vzj5-98" target="ZVA24bUqgCefPZl9Vzj5-106" edge="1">
          <mxGeometry width="50" height="50" relative="1" as="geometry">
            <mxPoint x="-2143.5" y="1169" as="sourcePoint" />
            <mxPoint x="-2234.255851087944" y="1160.9978709578809" as="targetPoint" />
          </mxGeometry>
        </mxCell>
        <mxCell id="ZVA24bUqgCefPZl9Vzj5-106" value="" style="triangle;whiteSpace=wrap;html=1;rotation=-90;fillColor=#00994D;" parent="1" vertex="1">
          <mxGeometry x="-2180.5" y="1093" width="27" height="25" as="geometry" />
        </mxCell>
        <mxCell id="1mYdGpxbMNyZ_4utEJQG-1" value="" style="endArrow=block;html=1;rounded=0;endFill=1;strokeWidth=2;" parent="1" source="ZVA24bUqgCefPZl9Vzj5-6" target="ZVA24bUqgCefPZl9Vzj5-71" edge="1">
          <mxGeometry width="50" height="50" relative="1" as="geometry">
            <mxPoint x="-1406" y="1123" as="sourcePoint" />
            <mxPoint x="-1285" y="1135" as="targetPoint" />
          </mxGeometry>
        </mxCell>
        <mxCell id="1mYdGpxbMNyZ_4utEJQG-2" value="&lt;b&gt;Concerns&lt;/b&gt;" style="edgeLabel;html=1;align=center;verticalAlign=middle;resizable=0;points=[];" parent="1mYdGpxbMNyZ_4utEJQG-1" vertex="1" connectable="0">
          <mxGeometry x="-0.0439" y="1" relative="1" as="geometry">
            <mxPoint as="offset" />
          </mxGeometry>
        </mxCell>
      </root>
    </mxGraphModel>
  </diagram>
</mxfile>
